<?xml version="1.0" encoding="UTF-8"?>
<svg id="b" data-name="Layer 2" xmlns="http://www.w3.org/2000/svg" width="1723.654" height="365.433" viewBox="0 0 1723.654 365.433">
  <g id="c" data-name="Layer 1">
    <g>
      <path d="M108.734,175.545c0-3.688.051-7.377-.012-11.064-.103-6.008-4.333-10.173-10.369-10.209-6.475-.039-12.95-.039-19.426.002-6.563.042-10.649,4.166-10.675,10.749-.027,7.028-.021,14.056,0,21.084.021,6.727,3.776,10.762,10.478,10.912,6.61.148,13.227.088,19.839-.04,6.128-.119,10.092-4.243,10.163-10.37.043-3.688.008-7.376.008-11.064h-.007Z" fill="#000" stroke-width="0"/>
      <path d="M221.604,211.922c.012-1.793-.631-2.472-2.44-2.46-8.353.057-16.708.056-25.061.004-1.778-.011-2.484.611-2.471,2.432.06,8.349.059,16.698.007,25.047-.011,1.79.641,2.491,2.449,2.457,4.176-.079,8.353-.025,12.53-.021,4.177,0,8.355-.054,12.53.025,1.796.034,2.468-.623,2.455-2.436-.059-8.349-.057-16.698,0-25.047Z" fill="#000" stroke-width="0"/>
      <path d="M182.716,0C81.805,0,0,81.805,0,182.716s81.805,182.716,182.716,182.716,182.716-81.805,182.716-182.716S283.628,0,182.716,0ZM87.396,82.87c38.943-.01,77.886-.006,116.828-.029,1.556,0,2.737.365,3.813,1.637,18.881,22.334,37.808,44.629,56.72,66.936.466.549.875,1.146,1.617,2.126-1.243.082-1.97.172-2.696.172-38.803.009-77.607-.01-116.41.06-2.266.004-3.728-.765-5.143-2.438-18.654-22.07-37.361-44.095-56.048-66.137-.468-.552-.854-1.172-1.551-2.139,1.271-.087,2.071-.19,2.871-.19ZM334.936,184.698c-3.343-.056-6.691.072-10.032-.027-1.897-.057-2.557.633-2.542,2.535.069,8.774.036,17.548.025,26.323-.004,2.769-.101,2.901-2.788,2.866-7.258-.094-5.025.951-9.252-4.735-2.368-3.185-4.615-6.46-6.932-9.683-.513-.713-1.095-1.378-1.909-2.394-2.91,4.048-5.547,7.715-8.183,11.383-.163.226-.31.464-.477.686-4.319,5.762-2.04,4.587-9.46,4.773-1.912.048-2.554-.718-2.54-2.596.064-8.356.026-16.713.023-25.069,0-.766-.024-1.532-.024-2.298-.001-1.195-.55-1.772-1.788-1.761-3.344.028-6.689.023-10.033.004-1.218-.007-1.806.516-1.753,1.759.033.764-.006,1.532-.006,2.298,0,30.153,0,60.306-.002,90.459,0,3.358-.01,3.368-3.283,3.368-38.602.003-77.203.003-115.805,0-3.41,0-3.421-.009-3.421-3.484-.004-30.292-.004-60.585-.007-90.877q0-3.526-3.585-3.533c-4.041-.004-8.085.082-12.123-.036-2.023-.059-2.611.703-2.653,2.666-.282,13.408-9.027,24.071-21.992,26.864-1.825.393-3.725.588-5.593.607-6.828.069-13.657.073-20.485.013-15.608-.138-27.641-12.171-27.754-27.76-.056-7.66-.054-15.321.005-22.98.117-15.35,12.231-27.415,27.551-27.474,6.759-.026,13.517-.022,20.276.002,15.785.056,27.658,11.685,28.026,27.428.066,2.828.075,2.845,3.479,2.845,60.271.002,120.542.002,180.812.002,7.734,0,15.468-.003,23.203.002q3.195.002,3.204,3.285c.005,4.109-.05,8.218.023,12.325.029,1.632-.604,2.239-2.207,2.212Z" fill="#000" stroke-width="0"/>
    </g>
    <g>
      <path d="M500.766,180.83l.575-17.776c0-7.801-.778-12.926-2.334-15.378-1.557-2.451-4.167-3.677-7.833-3.677-2.132,0-3.197-.448-3.197-1.343,0-.81.641-1.215,1.922-1.215l18.638.639,15.821-.319c1.237,0,1.857.383,1.857,1.151,0,.682-.406,1.023-1.215,1.023-3.24,0-5.755.47-7.546,1.407-1.79.938-2.973,2.537-3.549,4.796-.575,2.26-1.045,8.707-1.406,19.342-.363,10.637-.544,18.362-.544,23.179l-.191,15.73c0,4.902.469,8.088,1.406,9.559s2.334,2.622,4.188,3.453c1.854.831,3.762,1.354,5.723,1.566,1.364.171,2.046.576,2.046,1.215,0,.682-.576,1.023-1.729,1.023l-19.729-.512-12.875.448c-1.494,0-2.241-.384-2.241-1.151,0-.64.532-.98,1.599-1.023,3.409-.213,5.637-.66,6.682-1.343,1.044-.681,1.886-1.982,2.525-3.9s1.001-5.157,1.087-9.719l.32-23.211c-3.661-.256-7.386-.384-11.173-.384-16.474,0-26.923.299-31.35.894-.341,8.171-.511,14.895-.511,20.172,0,5.916.128,9.555.384,10.916.255,1.362,1.055,2.628,2.397,3.798,1.343,1.171,3.187,1.99,5.531,2.458,1.448.299,2.174.768,2.174,1.407,0,.768-.47,1.151-1.407,1.151-.299,0-.725-.043-1.278-.128-2.302-.256-7.077-.384-14.323-.384-7.887,0-12.725.189-14.515.568-.384.047-.768.071-1.151.071-.981,0-1.471-.329-1.471-.986,0-.744.66-1.204,1.982-1.38,3.282-.382,5.627-1.298,7.033-2.745,1.407-1.446,2.376-6.874,2.91-16.279.532-9.405.799-20.832.799-34.281,0-10.938-.512-17.833-1.534-20.685-1.023-2.852-3.518-4.426-7.481-4.724-.896-.088-1.343-.438-1.343-1.051,0-.876.916-1.315,2.749-1.315l25.77-.383c1.832,0,2.93.052,3.293.156.361.104.543.447.543,1.027,0,.665-.555,1.059-1.662,1.183-4.221.428-6.789,1.196-7.705,2.306-.917,1.111-1.375,8.028-1.375,20.753,0,1.324.064,5.957.191,13.899,4.342.342,9.449.512,15.323.512,7.576,0,16.643-.17,27.199-.512Z" fill="#000" stroke="#fff" stroke-miterlimit="10"/>
      <path d="M535.55,182.301c0-5.754,1.748-12.074,5.244-18.958,3.494-6.884,8.6-12.565,15.313-17.041s14.291-6.714,22.731-6.714c11.808,0,21.559,4.22,29.254,12.661,7.694,8.44,11.542,18.075,11.542,28.902,0,11.51-4.264,21.836-12.789,30.98-8.526,9.144-18.777,13.715-30.756,13.715-11.468,0-21.091-4.006-28.87-12.021-7.78-8.014-11.67-18.521-11.67-31.524ZM549.81,180.221c0,6.954,1.063,14.089,3.193,21.406,2.129,7.317,5.472,12.629,10.027,15.935,4.556,3.307,9.431,4.96,14.626,4.96,8.388,0,15.104-4.084,20.15-12.255,5.045-8.169,7.568-17.63,7.568-28.381,0-10.409-2.576-19.549-7.728-27.42-5.152-7.871-11.881-11.807-20.183-11.807-6.26,0-11.476,2.101-15.648,6.303s-7.218,9.226-9.134,15.07-2.873,11.242-2.873,16.19Z" fill="#000" stroke="#fff" stroke-miterlimit="10"/>
      <path d="M655.897,140.994c4.309,9.344,8.318,17.598,12.031,24.765,4.479,8.575,7.967,15.7,10.463,21.374,2.495,5.675,5.407,11.285,8.735,16.83,8.832-14.633,19.072-35.622,30.722-62.968l25.451.066c.896.132,1.343.525,1.343,1.183s-.512,1.029-1.534,1.117c-4.52.384-7.535,1.29-9.048,2.718-1.514,1.429-2.452,3.827-2.813,7.193-.363,3.368-.715,9.634-1.056,18.799-.342,9.166-.511,16.796-.511,22.891,0,11.724.085,18.555.255,20.494.17,1.94.896,3.485,2.175,4.636,1.278,1.151,3.772,1.982,7.48,2.494,1.065.17,1.599.575,1.599,1.215s-.661.959-1.981.959l-24.874-.064h-6.522c-1.449,0-2.174-.341-2.174-1.023,0-.597.489-.959,1.471-1.087,3.581-.47,5.957-1.131,7.13-1.984,1.172-.854,2.046-2.378,2.621-4.575.576-2.197.863-7.668.863-16.414l1.215-30.716.64-15.167c0-1.151-.171-1.727-.513-1.727-.513,0-.938.341-1.279,1.024l-12.673,25.021c-8.107,15.998-13.079,26.236-14.913,30.716l-3.968,9.662c-1.238,2.943-1.985,4.554-2.241,4.832-.256.277-.555.416-.896.416-.512,0-.938-.555-1.279-1.664-.769-2.645-4.715-11.049-11.84-25.213-3.711-7.977-8.158-17.085-13.342-27.324s-7.988-15.582-8.415-16.03-.746-.672-.959-.672c-.428,0-.641.534-.641,1.599l-.703,38.744-.192,12.787c0,6.778.928,11.211,2.781,13.299,1.854,2.088,4.509,3.132,7.961,3.132,2.217,0,3.325.469,3.325,1.407,0,.682-.533,1.023-1.599,1.023l-1.343-.064-4.156.064-9.016-.064c-3.923,0-8.974.213-15.154.64-.512-.342-.768-.682-.768-1.023,0-.852.745-1.3,2.238-1.343,4.262-.128,7.396-1.536,9.399-4.223,2.003-2.688,3.005-8.703,3.005-18.047l-.128-11.263.896-28.542c0-6.655-.981-11.208-2.941-13.662-1.961-2.453-4.839-3.915-8.632-4.384-1.621-.208-2.43-.644-2.43-1.308,0-.747.596-1.122,1.79-1.122.64,0,1.407.022,2.303.064l22.642.512Z" fill="#000" stroke="#fff" stroke-miterlimit="10"/>
      <path d="M819.775,141.762c1.235,4.774,2.45,11.467,3.645,20.078-.208.342-.436.512-.684.512-.291,0-.606-.17-.947-.512-2.943-4.731-5.759-8.333-8.446-10.806-2.688-2.472-5.386-4.23-8.095-5.275-2.708-1.044-7.368-1.566-13.98-1.566-6.229,0-11.155.362-14.78,1.085-.342.426-.513,1.213-.513,2.362,0,.298-.043.83-.128,1.596-.427,3.405-.64,12.639-.64,27.701,0,.638.042,1.531.128,2.68,3.242.128,5.46.192,6.655.192,5.375,0,9.269-.802,11.68-2.408,2.409-1.605,4.511-5.063,6.303-10.375.296-.899.719-1.349,1.27-1.349.803,0,1.205.62,1.205,1.858l-.256,2.563c-.342,3.375-.512,6.855-.512,10.442,0,5.809.105,11.041.319,15.697,0,1.453-.392,2.178-1.173,2.178-.576,0-.967-.512-1.173-1.535-.899-5.029-2.781-8.653-5.646-10.87-2.866-2.216-9.089-3.325-18.671-3.325-.129,3.112-.192,8.143-.192,15.09,0,8.995.319,14.707.959,17.137s2.175,4.359,4.606,5.787c2.433,1.429,6.549,2.142,12.35,2.142,16.593,0,27.299-5.712,32.12-17.136.589-1.407,1.2-2.11,1.833-2.11.675,0,1.012.47,1.012,1.407,0,.512-.106,1.066-.319,1.663-.256.81-.874,3.836-1.854,9.08-.214,1.109-1.023,4.434-2.43,9.975l-26.792-.064c-3.837,0-9.475-.16-16.913-.479s-14.025-.489-19.758-.511c-5.733-.021-8.729-.138-8.984-.352-.255-.213-.383-.447-.383-.703,0-.853.703-1.279,2.109-1.279,4.732,0,7.844-1.256,9.336-3.77,1.491-2.513,2.238-8.625,2.238-18.337l-.064-13.098.192-12.267c0-2.47-.14-7.145-.416-14.023-.277-6.879-.533-10.809-.768-11.789-.234-.979-.895-1.948-1.981-2.906-1.088-.958-3.485-1.927-7.194-2.908-1.108-.297-1.662-.767-1.662-1.407,0-.767.745-1.151,2.238-1.151l13.044.704c4.604.214,15.922.32,33.953.32,11.851,0,17.904.022,18.16.064Z" fill="#000" stroke="#fff" stroke-miterlimit="10"/>
      <path d="M879.24,226.101h-3.772c-2.004-6.436-5.158-15.218-9.463-26.344l-12.086-31.14c-3.751-9.633-6.362-15.644-7.833-18.032-1.471-2.387-2.909-4.006-4.315-4.859-1.407-.853-3.39-1.385-5.947-1.599-1.065-.085-1.599-.469-1.599-1.151,0-.81.533-1.215,1.599-1.215h33.506c2.089,0,3.134.362,3.134,1.087,0,.938-.683,1.407-2.047,1.407-5.627,0-8.44,2.409-8.44,7.226,0,1.151.256,2.984.768,5.499.512,2.516,1.396,5.606,2.654,9.271,1.257,3.667,3.964,11.18,8.12,22.54,4.156,11.361,6.81,18.342,7.961,20.941l13.684-37.918c3.922-10.742,5.883-17.498,5.883-20.27,0-4.476-2.771-6.947-8.312-7.417-1.109-.085-1.662-.49-1.662-1.215,0-.469.201-.777.607-.927.404-.149,1.587-.224,3.549-.224h21.356c1.918,0,3.079.054,3.484.16.405.107.607.416.607.927,0,.767-.831,1.279-2.493,1.535-3.197.469-5.595,1.63-7.193,3.485-1.599,1.854-3.134,4.071-4.604,6.65-1.471,2.58-5.403,12.842-11.797,30.788-2.26,6.31-7.376,19.908-15.347,40.795Z" fill="#000" stroke="#fff" stroke-miterlimit="10"/>
      <path d="M994.402,141.762c1.235,4.774,2.45,11.467,3.645,20.078-.208.342-.436.512-.684.512-.291,0-.606-.17-.947-.512-2.943-4.731-5.759-8.333-8.446-10.806-2.688-2.472-5.386-4.23-8.095-5.275-2.708-1.044-7.368-1.566-13.98-1.566-6.229,0-11.155.362-14.78,1.085-.342.426-.513,1.213-.513,2.362,0,.298-.043.83-.128,1.596-.427,3.405-.64,12.639-.64,27.701,0,.638.042,1.531.128,2.68,3.242.128,5.46.192,6.655.192,5.375,0,9.269-.802,11.68-2.408,2.409-1.605,4.511-5.063,6.303-10.375.296-.899.719-1.349,1.27-1.349.803,0,1.205.62,1.205,1.858l-.256,2.563c-.342,3.375-.512,6.855-.512,10.442,0,5.809.105,11.041.319,15.697,0,1.453-.392,2.178-1.173,2.178-.576,0-.967-.512-1.173-1.535-.899-5.029-2.781-8.653-5.646-10.87-2.866-2.216-9.089-3.325-18.671-3.325-.129,3.112-.192,8.143-.192,15.09,0,8.995.319,14.707.959,17.137s2.175,4.359,4.606,5.787c2.433,1.429,6.549,2.142,12.35,2.142,16.593,0,27.299-5.712,32.12-17.136.589-1.407,1.2-2.11,1.833-2.11.675,0,1.012.47,1.012,1.407,0,.512-.106,1.066-.319,1.663-.256.81-.874,3.836-1.854,9.08-.214,1.109-1.023,4.434-2.43,9.975l-26.792-.064c-3.837,0-9.475-.16-16.913-.479s-14.025-.489-19.758-.511c-5.733-.021-8.729-.138-8.984-.352-.255-.213-.383-.447-.383-.703,0-.853.703-1.279,2.109-1.279,4.732,0,7.844-1.256,9.336-3.77,1.491-2.513,2.238-8.625,2.238-18.337l-.064-13.098.192-12.267c0-2.47-.14-7.145-.416-14.023-.277-6.879-.533-10.809-.768-11.789-.234-.979-.895-1.948-1.981-2.906-1.088-.958-3.485-1.927-7.194-2.908-1.108-.297-1.662-.767-1.662-1.407,0-.767.745-1.151,2.238-1.151l13.044.704c4.604.214,15.922.32,33.953.32,11.851,0,17.904.022,18.16.064Z" fill="#000" stroke="#fff" stroke-miterlimit="10"/>
      <path d="M1058.152,145.534c1.151-1.151,1.919-2.344,2.302-3.581.341-1.023.832-1.535,1.471-1.535.341,0,.725.214,1.151.64.298,1.535.725,4.626,1.279,9.271l1.534,12.021c0,.767-.47,1.151-1.407,1.151-.511,0-.959-.426-1.343-1.279-2.26-5.584-5.605-10.231-10.038-13.939-4.435-3.666-9.272-5.499-14.516-5.499-5.158,0-9.048,1.557-11.669,4.667-2.622,3.112-3.933,6.417-3.933,9.911,0,4.263,1.428,7.524,4.284,9.783,2.855,2.26,8.738,4.818,17.648,7.673,6.563,2.046,11.478,4.028,14.738,5.947,3.261,1.918,6,4.604,8.217,8.057,2.216,3.453,3.325,7.162,3.325,11.126,0,6.736-2.793,12.768-8.377,18.096-5.585,5.329-12.427,7.993-20.525,7.993-7.289,0-14.622-2.28-21.996-6.842-1.45,1.194-2.388,2.601-2.813,4.22-.342,1.364-.896,2.046-1.663,2.046-.682,0-1.173-.873-1.471-2.622-.298-1.747-.917-10.017-1.854-24.81.17-.511.617-.767,1.343-.767.639,0,1.15.469,1.534,1.407,6.564,16.497,15.729,24.746,27.495,24.746,5.84,0,10.412-1.758,13.716-5.275,3.303-3.517,4.956-7.555,4.956-12.117,0-3.154-.886-6.052-2.654-8.696-1.77-2.643-4.114-4.774-7.033-6.395-2.921-1.62-7.535-3.431-13.844-5.435-8.1-2.6-13.609-5.062-16.529-7.385-2.92-2.323-5.062-4.944-6.426-7.865-1.365-2.919-2.047-5.744-2.047-8.473,0-5.669,2.568-10.699,7.705-15.09,5.137-4.39,11.436-6.586,18.896-6.586,2.813,0,5.765.447,8.855,1.343,3.091.895,6.319,2.26,9.688,4.092Z" fill="#000" stroke="#fff" stroke-miterlimit="10"/>
      <path d="M1115.636,144.511c-3.327-.17-5.673-.256-7.037-.256-9.214,0-15.889,1.925-20.026,5.776-4.138,3.85-6.547,7.273-7.229,10.268-.212,1.07-.783,1.604-1.715,1.604-.423,0-.826-.205-1.207-.616.213-5.079,1.045-11.928,2.494-20.549,2.046-.042,3.346-.064,3.9-.064,3.325,0,7.779.171,13.364.512,6.011.342,15.218.512,27.623.512,12.702,0,20.973-.149,24.81-.448,3.495-.341,8.291-.512,14.387-.512.512,3.069.853,6.267,1.023,9.591.256,3.795.512,6.458.768,7.993.042.341.063.703.063,1.087,0,1.023-.445,1.535-1.335,1.535-.551,0-1.007-.181-1.366-.543-.359-.362-1.18-1.567-2.459-3.613-2.218-3.453-4.521-6.063-6.91-7.833-2.389-1.769-5.054-2.91-7.997-3.421-2.943-.512-8.894-.853-17.851-1.023-.511,6.437-.767,13.791-.767,22.06,0,27.367.585,43.503,1.758,48.404,1.172,4.902,5.36,7.354,12.564,7.354,1.748,0,2.622.362,2.622,1.087,0,.853-.831,1.279-2.494,1.279h-39.324c-1.023,0-1.534-.405-1.534-1.215s1.001-1.215,3.005-1.215c3.367,0,6.085-.948,8.152-2.846,2.067-1.896,3.262-4.465,3.581-7.705.319-3.239.479-12.597.479-28.071,0-13.214-.447-26.258-1.343-39.132Z" fill="#000" stroke="#fff" stroke-miterlimit="10"/>
      <path d="M1173.631,182.301c0-5.754,1.748-12.074,5.244-18.958,3.494-6.884,8.6-12.565,15.313-17.041s14.291-6.714,22.731-6.714c11.808,0,21.559,4.22,29.254,12.661,7.694,8.44,11.542,18.075,11.542,28.902,0,11.51-4.264,21.836-12.789,30.98-8.526,9.144-18.777,13.715-30.756,13.715-11.468,0-21.091-4.006-28.87-12.021-7.78-8.014-11.67-18.521-11.67-31.524ZM1187.891,180.221c0,6.954,1.063,14.089,3.193,21.406,2.129,7.317,5.472,12.629,10.027,15.935,4.556,3.307,9.431,4.96,14.626,4.96,8.388,0,15.104-4.084,20.15-12.255,5.045-8.169,7.568-17.63,7.568-28.381,0-10.409-2.576-19.549-7.728-27.42-5.152-7.871-11.881-11.807-20.183-11.807-6.26,0-11.476,2.101-15.648,6.303s-7.218,9.226-9.134,15.07-2.873,11.242-2.873,16.19Z" fill="#000" stroke="#fff" stroke-miterlimit="10"/>
      <path d="M1316.542,181.821c5.918,2.565,10.035,5.247,12.352,8.046,2.315,2.799,4.022,7.12,5.12,12.959,1.435,7.673,3.427,12.832,5.975,15.473,2.548,2.643,5.882,4.049,10.002,4.221,1.147.083,1.721.499,1.721,1.245s-.661,1.121-1.982,1.121c-11.937,0-19.173-.394-21.708-1.183-2.537-.788-4.424-5.147-5.659-13.076-1.151-7.715-2.356-13.353-3.613-16.913-1.258-3.559-3.261-6.288-6.01-8.185-2.75-1.896-7.045-2.846-12.885-2.846-2.217,0-4.731.235-7.545.703-.214,2.681-.32,5.469-.32,8.362,0,10.938.149,18.014.448,21.227.297,3.213,1.203,5.554,2.717,7.022,1.513,1.469,4.039,2.245,7.577,2.33,1.535.044,2.303.417,2.303,1.117,0,.833-.938,1.249-2.813,1.249h-31.652c-1.833,0-2.749-.416-2.749-1.249,0-.744.725-1.117,2.174-1.117,3.239,0,5.488-.49,6.746-1.47,1.257-.979,2.248-2.502,2.974-4.568.724-2.066,1.087-5.804,1.087-11.213l-.128-13.034.063-19.87c0-10.137-.224-16.846-.671-20.126-.448-3.279-1.247-5.483-2.398-6.612-1.15-1.129-3.815-2.012-7.992-2.651-.896-.128-1.343-.49-1.343-1.087,0-.682.895-1.023,2.686-1.023l37.854-.831c10.443,0,18.021,2.002,22.731,6.006,4.71,4.004,7.065,8.902,7.065,14.695,0,3.664-.948,7.008-2.845,10.032-1.897,3.024-4.146,5.218-6.746,6.581-2.601,1.363-6.778,2.917-12.533,4.664ZM1292.309,180.191c8.185-.17,14.322-.745,18.415-1.727,4.093-.98,7.577-3.133,10.455-6.458,2.877-3.325,4.315-7.268,4.315-11.83,0-4.816-1.599-9.016-4.796-12.597-3.196-3.581-8.312-5.371-15.346-5.371-3.837,0-8.079.512-12.725,1.535-.512,11.724-.768,21.059-.768,28.007,0,2.388.149,5.201.448,8.44Z" fill="#000" stroke="#fff" stroke-miterlimit="10"/>
      <path d="M1402.929,145.534c1.151-1.151,1.919-2.344,2.302-3.581.341-1.023.832-1.535,1.471-1.535.341,0,.725.214,1.151.64.298,1.535.725,4.626,1.279,9.271l1.534,12.021c0,.767-.47,1.151-1.407,1.151-.511,0-.959-.426-1.343-1.279-2.26-5.584-5.605-10.231-10.038-13.939-4.435-3.666-9.272-5.499-14.516-5.499-5.158,0-9.048,1.557-11.669,4.667-2.622,3.112-3.933,6.417-3.933,9.911,0,4.263,1.428,7.524,4.284,9.783,2.855,2.26,8.738,4.818,17.648,7.673,6.563,2.046,11.478,4.028,14.738,5.947,3.261,1.918,6,4.604,8.217,8.057,2.216,3.453,3.325,7.162,3.325,11.126,0,6.736-2.793,12.768-8.377,18.096-5.585,5.329-12.427,7.993-20.525,7.993-7.289,0-14.622-2.28-21.996-6.842-1.45,1.194-2.388,2.601-2.813,4.22-.342,1.364-.896,2.046-1.663,2.046-.682,0-1.173-.873-1.471-2.622-.298-1.747-.917-10.017-1.854-24.81.17-.511.617-.767,1.343-.767.639,0,1.15.469,1.534,1.407,6.564,16.497,15.729,24.746,27.495,24.746,5.84,0,10.412-1.758,13.716-5.275,3.303-3.517,4.956-7.555,4.956-12.117,0-3.154-.886-6.052-2.654-8.696-1.77-2.643-4.114-4.774-7.033-6.395-2.921-1.62-7.535-3.431-13.844-5.435-8.1-2.6-13.609-5.062-16.529-7.385-2.92-2.323-5.062-4.944-6.426-7.865-1.365-2.919-2.047-5.744-2.047-8.473,0-5.669,2.568-10.699,7.705-15.09,5.137-4.39,11.436-6.586,18.896-6.586,2.813,0,5.765.447,8.855,1.343,3.091.895,6.319,2.26,9.688,4.092Z" fill="#000" stroke="#fff" stroke-miterlimit="10"/>
      <path d="M1483.24,141.058l13.172-.256c16.667,0,29.264,4.05,37.79,12.149,8.525,8.1,12.789,18.309,12.789,30.628,0,8.739-2.046,16.337-6.139,22.795-4.093,6.458-9.208,11.329-15.346,14.611-6.139,3.283-14.323,4.923-24.555,4.923-2.302,0-5.222-.128-8.76-.384-6.31-.511-9.848-.767-10.614-.767-13.982,0-22.21.149-24.682.448-1.407,0-2.11-.357-2.11-1.07,0-.498.256-.83.768-.996.511-.166,2.088-.415,4.731-.747,3.41-.47,5.808-1.834,7.193-4.096,1.385-2.261,2.248-9.3,2.59-21.118l1.023-33.853c0-3.924-.268-7.711-.8-11.359-.533-3.647-1.364-5.995-2.494-7.04s-2.931-1.76-5.402-2.144c-1.791-.256-2.686-.746-2.686-1.471,0-.896.447-1.343,1.343-1.343.852,0,3.463.182,7.833.543,4.368.363,9.153.543,14.354.543ZM1481.002,202.827c0,5.627.373,9.645,1.119,12.053.746,2.409,2.344,4.391,4.796,5.946,2.451,1.557,6.384,2.334,11.798,2.334,7.758,0,14.045-1.833,18.862-5.499,4.817-3.666,8.578-8.546,11.286-14.643,2.707-6.096,4.061-12.575,4.061-19.438,0-10.145-3.092-19.332-9.271-27.56-6.182-8.227-15.794-12.341-28.838-12.341-5.798,0-9.176.192-10.136.576-.959.383-1.438,1.514-1.438,3.389,0,1.663-.149,4.626-.447,8.888-.427,6.224-.703,11.084-.831,14.579l-.576,17.584c-.256,8.228-.384,12.938-.384,14.131Z" fill="#000" stroke="#fff" stroke-miterlimit="10"/>
      <path d="M1588.834,139.331h2.956c4.761,9.762,11.328,26.451,19.704,50.067,5.399,15.133,9.103,24.416,11.111,27.847,2.008,3.432,5.235,5.339,9.68,5.723,1.41.128,2.115.598,2.115,1.407,0,.597-.362.896-1.087.896l-.896-.064c-3.922-.342-8.91-.512-14.962-.512-9.294,0-15.262.149-17.904.448-1.321,0-1.982-.384-1.982-1.151,0-.554.49-.896,1.471-1.023,3.623-.341,6.128-.959,7.514-1.854,1.385-.896,2.078-2.302,2.078-4.22,0-1.833-1.299-6.416-3.895-13.748l-3.768-10.998c-2.217,0-12.128.128-29.734.384-4.44,11.809-6.66,19.255-6.66,22.34,0,2.614,1.097,4.553,3.293,5.817,2.195,1.264,4.358,1.96,6.49,2.088,1.577.125,2.366.603,2.366,1.432,0,.333-.256.643-.768.934-6.821-.299-10.935-.448-12.341-.448-7.161,0-11.979.085-14.451.256-1.364,0-2.046-.384-2.046-1.151,0-.682.597-1.108,1.79-1.279,4.901-.64,8.653-3.965,11.254-9.975,2.6-6.011,6.652-16.817,12.157-32.419,5.035-14.195,10.539-27.793,16.514-40.795ZM1586.284,153.271c-3.971,8.1-8.603,19.865-13.896,35.296,4.39-.213,7.545-.32,9.463-.32l17.969.32c-1.575-4.433-3.789-10.316-6.641-17.648-3.491-8.738-5.789-14.621-6.896-17.648Z" fill="#000" stroke="#fff" stroke-miterlimit="10"/>
      <path d="M1639.069,182.301c0-5.754,1.748-12.074,5.244-18.958,3.494-6.884,8.6-12.565,15.313-17.041s14.291-6.714,22.731-6.714c11.808,0,21.559,4.22,29.254,12.661,7.694,8.44,11.542,18.075,11.542,28.902,0,11.51-4.264,21.836-12.789,30.98-8.526,9.144-18.777,13.715-30.756,13.715-11.468,0-21.091-4.006-28.87-12.021-7.78-8.014-11.67-18.521-11.67-31.524ZM1653.328,180.221c0,6.954,1.063,14.089,3.193,21.406,2.129,7.317,5.472,12.629,10.027,15.935,4.556,3.307,9.431,4.96,14.626,4.96,8.388,0,15.104-4.084,20.15-12.255,5.045-8.169,7.568-17.63,7.568-28.381,0-10.409-2.576-19.549-7.728-27.42-5.152-7.871-11.881-11.807-20.183-11.807-6.26,0-11.476,2.101-15.648,6.303s-7.218,9.226-9.134,15.07-2.873,11.242-2.873,16.19Z" fill="#000" stroke="#fff" stroke-miterlimit="10"/>
    </g>
  </g>
</svg>